<svg xmlns="http://www.w3.org/2000/svg" width="74.988" height="75.015" viewBox="0 0 74.988 75.015">
  <g id="Group_160970" data-name="Group 160970" transform="translate(-577 -208.223)">
    <path id="Path_83736" data-name="Path 83736" d="M35.008,75.014c-1.372-.192-2.752-.337-4.115-.583A37.608,37.608,0,0,1,8.749,61.906c-.139-.158-.287-.309-.547-.587v4.459H3.8V53.568H15.463v4.353H11.3C17.747,66.63,31.14,73.08,45.174,69.693a32.241,32.241,0,0,0,19.35-13.132,33,33,0,0,0,5.888-22.635l4.308-.492.267,1.448v5.127c-.113.89-.21,1.782-.342,2.669A37.16,37.16,0,0,1,66.71,61.012,36.92,36.92,0,0,1,44.095,74.42c-1.36.249-2.738.4-4.108.594ZM42.667.387A36.438,36.438,0,0,0,16.753,6.322C2.4,15.84-1.355,31.887.4,42.294c.7-.083,1.4-.16,2.093-.252.717-.094,1.433-.2,2.167-.307a32.853,32.853,0,0,1,5.882-23.327A32.337,32.337,0,0,1,30.646,5.18,32.1,32.1,0,0,1,51.8,7.719,32.8,32.8,0,0,1,62.772,16.2h-4.13v4.386h11.8V8.876H66.071v4.34A37.407,37.407,0,0,0,42.667.387" transform="translate(577 208.224)" fill="#1a1818"/>
    <path id="Path_83737" data-name="Path 83737" d="M50.09,51.377a10.657,10.657,0,0,0,2.037-.167A8.246,8.246,0,0,0,54.571,35.89a1.117,1.117,0,0,1-.509-.746,9.737,9.737,0,0,0-10.471-9.07,1.424,1.424,0,0,1-1.5-.649,8.65,8.65,0,0,0-15.523,3.933c-.079.613-.238.808-.851.851a10.615,10.615,0,0,0,1.322,21.172c3.855.018,7.709,0,11.564,0,3.83,0,7.66.008,11.49-.007m1.388-11.965a3.777,3.777,0,0,1,2.876,4.241,3.7,3.7,0,0,1-3.644,3.259c-8.076.02-16.152.038-24.227-.013a6.168,6.168,0,0,1,.091-12.324c1.408-.03,2.817-.005,4.318-.005,0-1.4-.026-2.707.006-4.016a4.024,4.024,0,0,1,2.616-3.875,3.951,3.951,0,0,1,4.53.835,6.167,6.167,0,0,1,1.2,1.963,19.573,19.573,0,0,1,.7,2.332c.732-.3,1.435-.6,2.141-.888a5.291,5.291,0,0,1,7.5,4.191A12.109,12.109,0,0,1,49.312,38c-.031.287-.084.572-.137.926.831.173,1.571.308,2.3.482" transform="translate(576.516 208.224)" fill="#253eae"/>
  </g>
</svg>
